<svg xmlns="http://www.w3.org/2000/svg" width="22" height="24" viewBox="0 0 22 24" fill="none">
<path fill-rule="evenodd" clip-rule="evenodd" d="M16.4442 1.43423L16.4454 2.29775C19.6861 2.54644 21.8268 4.7087 21.8303 8.02462L21.843 17.7306C21.8477 21.3459 19.5281 23.5703 15.81 23.5761L6.72791 23.5876C3.03306 23.5922 0.684423 21.3148 0.679777 17.6892L0.667 8.09716C0.662354 4.75936 2.72757 2.60286 5.96827 2.31157L5.96711 1.44804C5.96594 0.941445 6.34925 0.560344 6.86033 0.560344C7.37141 0.559193 7.75471 0.939142 7.75588 1.44574L7.75704 2.2517L14.6566 2.24248L14.6554 1.43653C14.6543 0.929932 15.0376 0.549982 15.5486 0.548831C16.0481 0.547679 16.443 0.927629 16.4442 1.43423ZM2.45683 8.45295L20.0426 8.42992V8.02695C19.9926 5.55152 18.7242 4.25278 16.4476 4.05935L16.4487 4.9459C16.4487 5.44099 16.055 5.8336 15.5555 5.8336C15.0444 5.83475 14.66 5.44329 14.66 4.94821L14.6588 4.0156L7.75926 4.02481L7.76043 4.95627C7.76043 5.4525 7.37828 5.84397 6.8672 5.84397C6.35612 5.84512 5.97165 5.4548 5.97165 4.95857L5.97049 4.07202C3.70549 4.29423 2.45219 5.59757 2.45567 8.09488L2.45683 8.45295ZM15.0667 13.6859V13.6986C15.0784 14.2282 15.5197 14.63 16.0552 14.6185C16.5779 14.6058 16.9949 14.1672 16.9833 13.6375C16.9589 13.1309 16.5396 12.7176 16.018 12.7187C15.4837 12.7303 15.0656 13.1563 15.0667 13.6859ZM16.0261 18.8555C15.4918 18.844 15.0608 18.4076 15.0597 17.878C15.0481 17.3484 15.4767 16.9097 16.011 16.897H16.0226C16.5685 16.897 17.0111 17.3334 17.0111 17.8745C17.0122 18.4157 16.5708 18.8544 16.0261 18.8555ZM10.281 13.7043C10.3042 14.2339 10.7468 14.6473 11.2811 14.6243C11.8038 14.6001 12.2208 14.1626 12.1976 13.6329C12.1848 13.1148 11.755 12.7118 11.2323 12.713C10.698 12.736 10.2799 13.1747 10.281 13.7043ZM11.2857 18.8037C10.7514 18.8267 10.31 18.4134 10.2857 17.8838C10.2857 17.3541 10.7026 16.9166 11.237 16.8924C11.7596 16.8913 12.1906 17.2943 12.2022 17.8112C12.2266 18.342 11.8084 18.7795 11.2857 18.8037ZM5.4955 13.7446C5.51874 14.2743 5.96128 14.6887 6.49559 14.6646C7.01828 14.6415 7.43527 14.2029 7.41088 13.6732C7.39927 13.1551 6.9695 12.7522 6.44564 12.7533C5.91134 12.7763 5.49434 13.215 5.4955 13.7446ZM6.50013 18.8094C5.96582 18.8336 5.52444 18.4191 5.50005 17.8895C5.49888 17.3599 5.91704 16.9212 6.45135 16.8982C6.97404 16.897 7.40497 17.3 7.41659 17.8181C7.44098 18.3477 7.02399 18.7864 6.50013 18.8094Z" fill="#A5A5A5"/>
</svg>