<svg xmlns="http://www.w3.org/2000/svg" width="72" height="72" viewBox="0 0 72 72" fill="none">
<path d="M53.8826 36.4978C53.8818 40.0616 52.8246 43.5452 50.8447 46.5081C48.8648 49.471 46.0512 51.7802 42.7594 53.1438C39.4677 54.5073 35.8456 54.8641 32.3512 54.1689C28.8568 53.4737 25.6469 51.7577 23.1273 49.238C20.6072 46.7188 18.8908 43.5084 18.1954 40.0132C17.5 36.5179 17.8569 32.8948 19.2209 29.6025C20.5849 26.3101 22.8947 23.4966 25.8579 21.5178C28.8211 19.539 32.3046 18.484 35.8675 18.4863C38.2331 18.4846 40.5758 18.9492 42.7617 19.8536C44.9477 20.7581 46.934 22.0846 48.6071 23.7574C50.2802 25.4301 51.6073 27.4163 52.5125 29.6024C53.4177 31.7885 53.8833 34.1316 53.8826 36.4978Z" fill="#F2F2F2"/>
</svg>