<svg xmlns="http://www.w3.org/2000/svg" width="72" height="72" viewBox="0 0 72 72" fill="none">
<path d="M35.8671 56.4921C31.9121 56.494 28.0454 55.3226 24.7561 53.126C21.4669 50.9294 18.9028 47.8064 17.3883 44.1519C15.8738 40.4975 15.4768 36.4758 16.2478 32.5957C17.0187 28.7156 18.9227 25.1513 21.7191 22.3538C23.5761 20.4959 25.7807 19.0219 28.2071 18.0162C30.6335 17.0104 33.2343 16.4926 35.8608 16.4922C38.4873 16.4918 41.0881 17.0089 43.5149 18.0139C45.9416 19.0189 48.1467 20.4922 50.0041 22.3497C51.8616 24.2071 53.3352 26.4123 54.3407 28.8394C55.3462 31.2664 55.8639 33.8678 55.8643 36.495C55.8646 39.1222 55.3477 41.7238 54.3429 44.1511C53.3382 46.5785 51.8653 48.7841 50.0083 50.6421C48.155 52.504 45.9508 53.9797 43.5235 54.9839C41.0961 55.988 38.4938 56.5006 35.8671 56.4921ZM35.8671 18.5575C32.3187 18.5561 28.8496 19.6075 25.8988 21.5786C22.9479 23.5497 20.6478 26.352 19.2895 29.6309C17.9312 32.9099 17.5757 36.5181 18.268 39.9992C18.9603 43.4803 20.6693 46.6778 23.1787 49.1871C26.5434 52.553 31.1071 54.4439 35.8656 54.4441C40.6242 54.4443 45.188 52.5536 48.5529 49.188C51.9178 45.8224 53.8083 41.2576 53.8085 36.4977C53.8086 31.7379 51.9185 27.173 48.5537 23.8071C46.8895 22.1387 44.9118 20.8159 42.7345 19.915C40.5572 19.014 38.2233 18.5527 35.8671 18.5575Z" fill="black"/>
<path d="M26.031 47.2922C25.8426 47.2902 25.6591 47.2326 25.5033 47.1268C25.3475 47.0209 25.2263 46.8715 25.1549 46.6971C25.0836 46.5228 25.0652 46.3312 25.102 46.1465C25.1389 45.9617 25.2294 45.7919 25.3622 45.6583L45.0259 25.9811C45.2055 25.8017 45.4489 25.701 45.7028 25.7012C45.9566 25.7013 46.1999 25.8023 46.3793 25.982C46.5587 26.1616 46.6593 26.4052 46.6592 26.659C46.659 26.9129 46.5581 27.1563 46.3785 27.3358L26.7064 47.0113C26.618 47.1005 26.5128 47.1712 26.3968 47.2194C26.2809 47.2677 26.1565 47.2924 26.031 47.2922Z" fill="black"/>
</svg>