<svg xmlns="http://www.w3.org/2000/svg" width="72" height="72" viewBox="0 0 72 72" fill="none">
<path d="M38.2193 20.9693L37.8159 20.3965C37.5874 20.0765 37.3689 19.7677 37.1756 19.4877L37.1655 19.4733C36.8848 19.0669 36.6193 18.6845 36.3504 18.3325L35.9975 17.8701L35.6428 18.3325C35.3689 18.6893 35.105 19.0717 34.826 19.4765C34.6277 19.7613 34.4058 20.0813 34.1806 20.3917L34.1403 20.4477C29.7706 26.6125 23.1521 35.9309 23.1521 40.7037C23.1423 42.3121 23.4678 43.9062 24.1097 45.394C24.7516 46.8817 25.6971 48.2335 26.8916 49.3709C29.3186 51.6491 32.5891 52.9277 35.9975 52.9309C37.6869 52.9402 39.3614 52.6303 40.9242 52.0193C42.4869 51.4082 43.9068 50.508 45.1016 49.3709C47.4939 47.0606 48.8369 43.9479 48.8411 40.7037C48.8411 36.0605 42.7016 27.3389 38.2193 20.9693ZM44.542 45.7469C43.6754 47.1258 42.4431 48.2636 40.9689 49.0461C40.8132 49.1341 40.6356 49.1805 40.4546 49.1805C40.2494 49.1756 40.0492 49.1185 39.8749 49.0153C39.7006 48.9121 39.5584 48.7664 39.463 48.5933C39.3317 48.3568 39.3025 48.0809 39.3816 47.8243C39.4607 47.5676 39.6419 47.3504 39.8865 47.2189C41.0541 46.6129 42.0315 45.7222 42.7185 44.6381C43.4204 43.5576 43.8251 42.3261 43.8949 41.0573C43.9114 40.8058 44.0271 40.5695 44.2187 40.3957C44.4103 40.2218 44.6639 40.1233 44.9285 40.1197H44.9991C45.2811 40.1379 45.5443 40.2609 45.7319 40.4621C45.8239 40.5574 45.8945 40.6695 45.9393 40.7917C45.9841 40.9139 46.0022 41.0435 45.9924 41.1725C45.95 42.7938 45.4489 44.3741 44.542 45.7469Z" fill="#F2F2F2"/>
</svg>