<svg xmlns="http://www.w3.org/2000/svg" width="72" height="72" viewBox="0 0 72 72" fill="none">
<path d="M39.595 19.3096C38.9361 18.3848 38.3345 17.5208 37.7462 16.684L37.6992 16.6152C37.4269 16.2264 37.1647 15.8472 36.9075 15.4792C36.8171 15.3515 36.7033 15.2404 36.5714 15.1512C36.406 15.0468 36.2119 14.9911 36.0134 14.9912C35.8295 14.9925 35.6488 15.037 35.4872 15.1207C35.3257 15.2044 35.1883 15.3248 35.0874 15.4712C34.3546 16.5912 33.5143 17.7768 32.3983 19.3112C28.1344 25.2712 21 35.2456 21 40.7512C20.9983 42.6257 21.3873 44.4819 22.1447 46.2122C22.902 47.9425 24.0125 49.5125 25.4118 50.8312C28.2287 53.4902 32.0331 54.9849 36 54.9912C39.972 54.9719 43.7755 53.4612 46.5842 50.7873C49.3928 48.1135 50.9797 44.4925 51 40.7112C50.9966 35.2456 44.1361 25.6568 39.595 19.3096ZM45.1008 49.3704C43.906 50.5075 42.4861 51.4077 40.9234 52.0187C39.3606 52.6298 37.6861 52.9397 35.9966 52.9304C32.5883 52.9271 29.3178 51.6485 26.8907 49.3704C25.6963 48.233 24.7508 46.8812 24.1089 45.3935C23.467 43.9057 23.1415 42.3115 23.1513 40.7032C23.1513 35.9304 29.7647 26.612 34.1395 20.4472L34.1798 20.3912C34.405 20.0808 34.6269 19.7608 34.8252 19.476C35.1042 19.0712 35.3681 18.6888 35.642 18.332L35.9966 17.8696L36.3496 18.332C36.6185 18.684 36.884 19.0664 37.1647 19.4728L37.1748 19.4872C37.3681 19.7672 37.5865 20.0824 37.8151 20.396L38.2185 20.9688C42.7008 27.3384 48.8403 36.06 48.8403 40.7032C48.8361 43.9474 47.4931 47.0601 45.1008 49.3704Z" fill="black"/>
<path d="M45.9873 41.171C45.9463 42.7918 45.447 44.372 44.5419 45.7454C43.6753 47.1243 42.443 48.2621 40.9688 49.0446C40.8131 49.1325 40.6355 49.1789 40.4545 49.179C40.2493 49.174 40.0491 49.117 39.8748 49.0137C39.7005 48.9105 39.5583 48.7648 39.4629 48.5918C39.3316 48.3553 39.3024 48.0794 39.3815 47.8227C39.4606 47.566 39.6418 47.3489 39.8864 47.2174C41.054 46.6113 42.0314 45.7206 42.7184 44.6366C43.4203 43.556 43.825 42.3245 43.8948 41.0558C43.9113 40.8042 44.0269 40.5679 44.2186 40.3941C44.4102 40.2203 44.6638 40.1217 44.9284 40.1182H44.999C45.281 40.1364 45.5442 40.2593 45.7318 40.4606C45.8229 40.5562 45.8926 40.6685 45.9365 40.7907C45.9804 40.9128 45.9977 41.0422 45.9873 41.171Z" fill="black"/>
</svg>