<svg xmlns="http://www.w3.org/2000/svg" width="40" height="41" viewBox="0 0 40 41" fill="none">
<path fill-rule="evenodd" clip-rule="evenodd" d="M28.1546 3.66767L28.1564 4.99888C33.2352 5.38227 36.5902 8.71562 36.5956 13.8275L36.6156 28.7903C36.6229 34.3636 32.9877 37.7928 27.1607 37.8017L12.9273 37.8194C7.13679 37.8265 3.45603 34.3157 3.44875 28.7264L3.42872 13.9393C3.42144 8.79372 6.65804 5.46924 11.7368 5.02018L11.735 3.68897C11.7332 2.908 12.3339 2.32049 13.1349 2.32049C13.9358 2.31871 14.5365 2.90445 14.5384 3.68542L14.5402 4.92789L25.3531 4.91369L25.3513 3.67122C25.3495 2.89025 25.9502 2.30451 26.7511 2.30274C27.5339 2.30096 28.1528 2.8867 28.1546 3.66767ZM6.23374 14.4877L33.7939 14.4522V13.831C33.7157 10.0148 31.7278 8.01268 28.1599 7.71449L28.1618 9.0812C28.1618 9.84443 27.5447 10.4497 26.7619 10.4497C25.961 10.4515 25.3584 9.84798 25.3584 9.08475L25.3566 7.64704L14.5437 7.66124L14.5455 9.09717C14.5455 9.86218 13.9466 10.4657 13.1456 10.4657C12.3447 10.4674 11.7421 9.86573 11.7421 9.10072L11.7403 7.73401C8.19062 8.07658 6.22646 10.0858 6.23192 13.9357L6.23374 14.4877ZM25.9959 22.555V22.5745C26.0141 23.391 26.7058 24.0104 27.545 23.9927C28.3642 23.9732 29.0177 23.2969 28.9995 22.4804C28.9612 21.6995 28.3041 21.0623 27.4868 21.064C26.6494 21.0818 25.9941 21.7385 25.9959 22.555ZM27.4993 30.5243C26.6619 30.5066 25.9866 29.8339 25.9848 29.0174C25.9666 28.2009 26.6383 27.5247 27.4756 27.5052H27.4938C28.3494 27.5052 29.043 28.1779 29.043 29.0121C29.0448 29.8463 28.3531 30.5226 27.4993 30.5243ZM18.4959 22.5833C18.5323 23.3998 19.2258 24.037 20.0632 24.0015C20.8824 23.9642 21.5359 23.2898 21.4995 22.4733C21.4794 21.6746 20.8059 21.0533 19.9868 21.0551C19.1494 21.0906 18.4941 21.7669 18.4959 22.5833ZM20.0705 30.4446C19.2331 30.4801 18.5414 29.8429 18.5032 29.0264C18.5032 28.2099 19.1567 27.5355 19.994 27.4982C20.8132 27.4964 21.4885 28.1176 21.5068 28.9146C21.545 29.7328 20.8897 30.4073 20.0705 30.4446ZM10.996 22.6454C11.0324 23.4619 11.726 24.1009 12.5633 24.0636C13.3825 24.0281 14.036 23.3518 13.9978 22.5354C13.9796 21.7366 13.306 21.1154 12.4851 21.1172C11.6477 21.1527 10.9942 21.8289 10.996 22.6454ZM12.5705 30.4534C11.7331 30.4907 11.0414 29.8517 11.0031 29.0352C11.0013 28.2187 11.6567 27.5425 12.494 27.507C13.3132 27.5052 13.9885 28.1264 14.0067 28.9252C14.045 29.7416 13.3915 30.4179 12.5705 30.4534Z" fill="#AEAEAE"/>
</svg>