<svg xmlns="http://www.w3.org/2000/svg" width="122" height="122" viewBox="0 0 122 122" fill="none">
<g clip-path="url(#clip0_1006_599)">
<path d="M0 43.2666V104.03C0.00466941 105.461 0.183944 106.886 0.533838 108.273C0.722033 109.019 0.962006 109.751 1.25201 110.464C1.8996 112.047 2.77991 113.524 3.86374 114.846C5.46595 116.789 7.4769 118.353 9.75292 119.428C12.0289 120.502 14.5139 121.06 17.0302 121.062H104.97C108.994 121.068 112.889 119.642 115.96 117.039C117.433 115.801 118.682 114.319 119.654 112.657C120.068 111.954 120.431 111.222 120.738 110.466C121.028 109.754 121.268 109.022 121.457 108.276C121.64 107.555 121.776 106.823 121.864 106.085C121.946 105.404 121.988 104.719 121.99 104.033V43.2666H0Z" fill="#CCCCCC"/>
<path d="M0 34.3398V95.0987C0 95.173 0 95.2474 0 95.3217C0.0108778 95.9306 0.0524247 96.5387 0.124482 97.1434C0.197344 97.7537 0.303633 98.3595 0.44287 98.958C0.579846 99.5698 0.751689 100.173 0.957557 100.765C1.40588 102.043 2.00714 103.262 2.74819 104.395C4.29312 106.776 6.40803 108.733 8.90064 110.088C11.3932 111.443 14.1845 112.152 17.0206 112.152H104.97C107.806 112.152 110.597 111.442 113.089 110.087C115.582 108.733 117.697 106.776 119.242 104.395C119.622 103.811 119.966 103.205 120.274 102.58C120.56 101.99 120.813 101.384 121.03 100.765C121.24 100.171 121.415 99.565 121.557 98.9509C121.831 97.7601 121.977 96.5435 121.993 95.3217C121.993 95.2474 121.993 95.173 121.993 95.0987V34.3398H0Z" fill="#E9E8E8"/>
<path d="M121.983 28.1576C121.983 27.9467 121.964 27.7358 121.952 27.5248C121.94 27.3139 121.94 27.1029 121.921 26.8944C121.902 26.6858 121.868 26.4725 121.84 26.2616C121.811 26.0506 121.78 25.8373 121.744 25.6287C121.708 25.4202 121.686 25.2044 121.643 24.9959C121.6 24.7873 121.533 24.574 121.481 24.3631C121.428 24.1521 121.378 23.9388 121.318 23.7302C121.258 23.5217 121.191 23.3131 121.131 23.0974C121.071 22.8817 120.978 22.6755 120.892 22.4646C120.805 22.2536 120.748 22.0379 120.652 21.8341C120.556 21.6304 120.449 21.4123 120.348 21.2013C120.248 20.9904 120.152 20.7746 120.044 20.5685C119.936 20.3623 119.805 20.1442 119.688 19.9357C119.57 19.7271 119.436 19.5114 119.302 19.3028C119.168 19.0943 119.024 18.8785 118.878 18.67C118.732 18.4614 118.567 18.2457 118.4 18.0372C118.232 17.8286 118.064 17.6105 117.89 17.4043C117.715 17.1982 117.509 16.98 117.315 16.7715C117.121 16.563 116.901 16.3448 116.686 16.1411C116.47 15.9373 116.226 15.712 115.989 15.5082C115.752 15.3045 115.457 15.0792 115.185 14.8754C114.912 14.6717 114.608 14.4415 114.306 14.2426C113.968 14.0204 113.621 13.8095 113.265 13.6097C112.855 13.37 112.432 13.1735 112.003 12.9769C111.482 12.7392 110.949 12.528 110.406 12.3441C108.649 11.7591 106.81 11.4533 104.958 11.438H17.0302C15.1779 11.4533 13.3394 11.7591 11.5817 12.3441C11.039 12.5276 10.506 12.7388 9.98493 12.9769C9.55642 13.1735 9.1327 13.3796 8.72095 13.6097C8.36666 13.8079 8.01954 14.0188 7.67961 14.2426C7.37798 14.4415 7.09071 14.6573 6.80345 14.8754C6.51618 15.0935 6.26003 15.2853 5.9991 15.5082C5.73816 15.7312 5.52032 15.9229 5.30247 16.1411C5.08463 16.3592 4.87876 16.5558 4.67288 16.7715C4.46701 16.9872 4.28507 17.1886 4.09835 17.4043C3.91162 17.6201 3.75602 17.8238 3.59084 18.0396C3.42566 18.2553 3.27006 18.4567 3.11206 18.6724C2.95406 18.8881 2.82719 19.0919 2.69074 19.3052C2.55428 19.5186 2.4322 19.7175 2.30771 19.9357C2.18323 20.1538 2.06832 20.3527 1.95102 20.5685C1.83372 20.7842 1.74754 20.988 1.647 21.2013C1.54646 21.4147 1.43634 21.616 1.34058 21.8341C1.24482 22.0523 1.18977 22.256 1.10119 22.4646C1.01262 22.6731 0.9408 22.8841 0.861802 23.0974C0.782803 23.3107 0.727744 23.5169 0.665502 23.7302C0.603261 23.9436 0.555383 24.1521 0.502718 24.3631C0.450052 24.574 0.385417 24.7802 0.339933 24.9959C0.294449 25.2116 0.275298 25.4178 0.239389 25.6287C0.203481 25.8397 0.169966 26.0482 0.143634 26.2616C0.117301 26.4749 0.0813924 26.681 0.0622412 26.8944C0.0430901 27.1077 0.0598473 27.3163 0.0478779 27.5248C0.0359084 27.7334 0.0191511 27.9467 0.0167573 28.1576C0.0167573 28.2631 0 28.3662 0 28.4717V43.2665H122V28.4717C122 28.3662 121.986 28.2631 121.983 28.1576Z" fill="url(#paint0_linear_1006_599)"/>
<path d="M33.8447 34.4667C39.5125 34.4667 44.1073 29.8658 44.1073 24.1904C44.1073 18.5149 39.5125 13.9141 33.8447 13.9141C28.1768 13.9141 23.582 18.5149 23.582 24.1904C23.582 29.8658 28.1768 34.4667 33.8447 34.4667Z" fill="#258D78"/>
<path d="M88.4325 34.4667C94.1004 34.4667 98.6952 29.8658 98.6952 24.1904C98.6952 18.5149 94.1004 13.9141 88.4325 13.9141C82.7647 13.9141 78.1699 18.5149 78.1699 24.1904C78.1699 29.8658 82.7647 34.4667 88.4325 34.4667Z" fill="#258D78"/>
<path d="M41.479 15.1343V24.3918C41.479 26.3347 40.7097 28.1984 39.3397 29.5743C37.9697 30.9502 36.1108 31.726 34.1705 31.7317H33.56C31.6197 31.726 29.7608 30.9502 28.3908 29.5743C27.0208 28.1984 26.2515 26.3347 26.2515 24.3918V15.1343C26.2515 17.0772 27.0208 18.9409 28.3908 20.3167C29.7608 21.6926 31.6197 22.4684 33.56 22.4741H34.1705C36.1108 22.4684 37.9697 21.6926 39.3397 20.3167C40.7097 18.9409 41.479 17.0772 41.479 15.1343Z" fill="#EC8244"/>
<path d="M96.0479 15.1343V24.3918C96.0479 26.3347 95.2786 28.1984 93.9086 29.5743C92.5386 30.9502 90.6796 31.726 88.7393 31.7317H88.1289C86.1885 31.726 84.3296 30.9502 82.9596 29.5743C81.5896 28.1984 80.8203 26.3347 80.8203 24.3918V15.1343C80.8203 17.0772 81.5896 18.9409 82.9596 20.3167C84.3296 21.6926 86.1885 22.4684 88.1289 22.4741H88.7393C90.6796 22.4684 92.5386 21.6926 93.9086 20.3167C95.2786 18.9409 96.0479 17.0772 96.0479 15.1343Z" fill="#EC8244"/>
<path d="M41.479 7.37982V15.1344C41.479 17.0773 40.7097 18.941 39.3397 20.3168C37.9697 21.6927 36.1108 22.4685 34.1705 22.4743H33.56C31.6197 22.4685 29.7608 21.6927 28.3908 20.3168C27.0208 18.941 26.2515 17.0773 26.2515 15.1344V7.37982C26.2521 5.43908 27.0223 3.57801 28.3928 2.2057C29.7633 0.833396 31.6219 0.0621588 33.56 0.0615234L34.1705 0.0615234C36.1086 0.0621588 37.9672 0.833396 39.3377 2.2057C40.7082 3.57801 41.4784 5.43908 41.479 7.37982Z" fill="#FACB3E"/>
<path d="M96.0479 7.37982V15.1344C96.0479 17.0773 95.2786 18.941 93.9086 20.3168C92.5386 21.6927 90.6796 22.4685 88.7393 22.4743H88.1289C86.1885 22.4685 84.3296 21.6927 82.9596 20.3168C81.5896 18.941 80.8203 17.0773 80.8203 15.1344V7.37982C80.8209 5.43908 81.5912 3.57801 82.9616 2.2057C84.3321 0.833396 86.1907 0.0621588 88.1289 0.0615234L88.7393 0.0615234C90.6775 0.0621588 92.5361 0.833396 93.9065 2.2057C95.277 3.57801 96.0472 5.43908 96.0479 7.37982Z" fill="#FACB3E"/>
<path d="M94.64 90.1917C96.1985 94.8085 96.0141 99.4924 94.6137 103.347C94.486 103.695 94.3496 104.036 94.2044 104.368C94.02 104.792 93.8189 105.202 93.6035 105.603C93.2381 106.28 92.822 106.929 92.3587 107.544C91.8573 108.205 91.2963 108.818 90.6829 109.376C90.1633 109.846 89.6025 110.269 89.0072 110.639C88.6712 110.849 88.3235 111.039 87.9659 111.209C87.6882 111.341 87.4057 111.461 87.116 111.569C86.2978 111.873 85.4429 112.066 84.5737 112.144H104.955C105.099 112.144 105.243 112.144 105.386 112.144C105.568 112.144 105.748 112.132 105.93 112.123C106.112 112.113 106.303 112.099 106.487 112.082C110.721 111.697 114.658 109.742 117.525 106.6C120.393 103.457 121.984 99.3551 121.985 95.0986V48.0894C121.985 48.0894 118.72 80.5531 94.64 90.1917Z" fill="url(#paint1_linear_1006_599)"/>
<path d="M95.9495 74.8507C95.9495 79.0768 94.0463 82.9073 90.9821 85.6712C87.918 88.435 83.6712 90.1537 78.9887 90.1537H56.5747V85.4794H78.9983C83.6808 85.4794 87.9275 84.0172 90.9917 81.668C93.7495 79.5754 95.5664 76.73 95.8944 73.5898C95.9346 74.0089 95.953 74.4298 95.9495 74.8507Z" fill="#65AA9B"/>
<path d="M95.8848 73.5895C95.5569 76.7297 93.7303 79.5822 90.9821 81.6677C87.918 84.0168 83.6712 85.4791 78.9887 85.4791H56.5747V59.5498H78.9983C79.3909 59.5498 79.7859 59.569 80.157 59.5882C88.5092 60.1011 95.205 66.0651 95.8848 73.5895Z" fill="#72C7B8"/>
<path d="M91.0084 74.7882C90.759 74.7984 90.5146 74.7156 90.3226 74.5557C90.1307 74.3959 90.0048 74.1703 89.9695 73.9229C89.5362 69.1071 85.1817 65.231 79.8601 64.9026C79.6087 64.8882 79.343 64.8739 79.0749 64.8739H70.6197C70.4885 64.8871 70.3559 64.8727 70.2306 64.8316C70.1053 64.7904 69.9901 64.7234 69.8922 64.6348C69.7944 64.5463 69.7162 64.4382 69.6627 64.3175C69.6092 64.1968 69.5815 64.0662 69.5815 63.9342C69.5815 63.8022 69.6092 63.6716 69.6627 63.5509C69.7162 63.4302 69.7944 63.3221 69.8922 63.2336C69.9901 63.145 70.1053 63.078 70.2306 63.0368C70.3559 62.9957 70.4885 62.9813 70.6197 62.9945H79.0653C79.3789 62.9945 79.6901 63.0089 79.987 63.0281C86.3427 63.4164 91.5207 68.0356 92.0378 73.7718C92.0429 73.9016 92.022 74.0311 91.9764 74.1527C91.9308 74.2743 91.8613 74.3855 91.772 74.4798C91.6828 74.5741 91.5756 74.6495 91.4568 74.7016C91.338 74.7538 91.21 74.7816 91.0802 74.7834L91.0084 74.7882Z" fill="white"/>
<path d="M88.6744 82.1591C88.5239 82.1609 88.3747 82.1313 88.2363 82.0723C88.0978 82.0133 87.9731 81.9261 87.87 81.8164C87.7836 81.7243 87.7181 81.6146 87.6779 81.4948C87.6377 81.375 87.6239 81.2479 87.6373 81.1223C87.6507 80.9967 87.6911 80.8754 87.7556 80.7668C87.8201 80.6582 87.9074 80.5649 88.0113 80.4932C88.812 79.8275 89.3375 78.8879 89.4859 77.8564C89.5333 77.5948 89.6811 77.3623 89.8977 77.2086C90.1143 77.0549 90.3824 76.9923 90.6445 77.0342C90.774 77.0401 90.901 77.0723 91.0177 77.1288C91.1344 77.1853 91.2384 77.2649 91.3235 77.3629C91.4085 77.4608 91.4728 77.575 91.5125 77.6986C91.5522 77.8221 91.5664 77.9525 91.5542 78.0817C91.3385 79.609 90.5449 80.995 89.3375 81.953C89.1438 82.0903 88.9116 82.1625 88.6744 82.1591Z" fill="white"/>
<path d="M60.2448 85.4792V90.1584H41.6922C32.3249 90.1584 24.729 83.3075 24.729 74.8554C24.7281 74.4389 24.7505 74.0228 24.7961 73.6089C25.5142 80.2656 32.806 85.4792 41.6922 85.4792H60.2448Z" fill="#1D7462"/>
<path d="M60.2447 59.5498V85.4791H41.692C32.8059 85.4791 25.5165 80.2654 24.7959 73.6087V73.5895C25.1239 69.8573 26.9504 66.5205 29.6986 64.0324C32.7053 61.3697 36.5229 59.8034 40.531 59.5882C40.9044 59.569 41.297 59.5498 41.692 59.5498H60.2447Z" fill="#1A9982"/>
</g>
<defs>
<linearGradient id="paint0_linear_1006_599" x1="60.9988" y1="9.03132" x2="60.9988" y2="46.7063" gradientUnits="userSpaceOnUse">
<stop stop-color="#39A994"/>
<stop offset="1" stop-color="#75C9BA"/>
</linearGradient>
<linearGradient id="paint1_linear_1006_599" x1="125.77" y1="96.3666" x2="103.168" y2="80.0711" gradientUnits="userSpaceOnUse">
<stop stop-color="white"/>
<stop offset="0.27" stop-color="#F6F6F6"/>
<stop offset="0.72" stop-color="#DFDFDF"/>
<stop offset="1" stop-color="#CCCCCC"/>
</linearGradient>
<clipPath id="clip0_1006_599">
<rect width="122" height="121" fill="white" transform="translate(0 0.0615234)"/>
</clipPath>
</defs>
</svg>