<svg xmlns="http://www.w3.org/2000/svg" width="29" height="34" viewBox="0 0 29 34" fill="none">
<path fill-rule="evenodd" clip-rule="evenodd" d="M9.62641 24.3779H18.6033C19.2799 24.3779 19.8409 23.8112 19.8409 23.1279C19.8409 22.4445 19.2799 21.8945 18.6033 21.8945H9.62641C8.94985 21.8945 8.38879 22.4445 8.38879 23.1279C8.38879 23.8112 8.94985 24.3779 9.62641 24.3779ZM15.204 13.5612H9.62641C8.94985 13.5612 8.38879 14.1279 8.38879 14.8112C8.38879 15.4945 8.94985 16.0445 9.62641 16.0445H15.204C15.8805 16.0445 16.4416 15.4945 16.4416 14.8112C16.4416 14.1279 15.8805 13.5612 15.204 13.5612ZM26.9803 12.1039C27.3682 12.0994 27.7905 12.0945 28.1743 12.0945C28.5868 12.0945 28.9168 12.4279 28.9168 12.8445V26.2445C28.9168 30.3779 25.6 33.7279 21.5076 33.7279H8.37227C4.08185 33.7279 0.583496 30.2112 0.583496 25.8779V7.9112C0.583496 3.77787 3.91683 0.394531 8.02574 0.394531H16.8376C17.2667 0.394531 17.5967 0.744531 17.5967 1.1612V6.52786C17.5967 9.57787 20.0884 12.0779 23.1082 12.0945C23.8136 12.0945 24.4355 12.0998 24.9796 12.1044C25.403 12.108 25.7794 12.1112 26.1115 12.1112C26.3464 12.1112 26.6509 12.1077 26.9803 12.1039ZM27.4353 9.6712C26.0789 9.6762 24.4799 9.6712 23.3297 9.65954C21.5046 9.65954 20.0013 8.1412 20.0013 6.29787V1.90453C20.0013 1.1862 20.8643 0.829535 21.3577 1.34787C22.2519 2.28685 23.481 3.57798 24.704 4.86278C25.9211 6.14125 27.1322 7.41346 28.0013 8.3262C28.4832 8.8312 28.13 9.66954 27.4353 9.6712Z" fill="#AEAEAE"/>
</svg>