<svg xmlns="http://www.w3.org/2000/svg" width="72" height="72" viewBox="0 0 72 72" fill="none">
<path d="M55.7037 23.04L49.2344 16.5683C49.1098 16.4439 48.941 16.374 48.7649 16.374C48.5888 16.374 48.4199 16.4439 48.2954 16.5683L46.772 18.0893C46.7102 18.151 46.6611 18.2242 46.6276 18.3048C46.5941 18.3855 46.5769 18.4719 46.5769 18.5592C46.5769 18.6465 46.5941 18.7329 46.6276 18.8135C46.6611 18.8942 46.7102 18.9674 46.772 19.029L48.5823 20.8394L44.5793 24.8463L40.6519 20.9177C40.5275 20.7937 40.3589 20.7241 40.1831 20.7241C40.0074 20.7241 39.8388 20.7937 39.7143 20.9177L37.3754 23.2576C37.2509 23.3821 37.181 23.5508 37.181 23.7268C37.181 23.9028 37.2509 24.0715 37.3754 24.196L38.9918 25.8179L24.0701 40.7507C24.0083 40.8123 23.9592 40.8856 23.9258 40.9662C23.8923 41.0468 23.875 41.1332 23.875 41.2205C23.875 41.3078 23.8923 41.3943 23.9258 41.4749C23.9592 41.5555 24.0083 41.6287 24.0701 41.6904L25.2084 42.8292L23.2241 44.7072L27.1435 48.6558L29.1755 46.7976L30.3217 47.9443C30.4462 48.0684 30.6148 48.138 30.7905 48.138C30.9663 48.138 31.1349 48.0684 31.2594 47.9443L42.4157 36.7862L46.189 33.0115L48.2037 35.0276C48.3283 35.152 48.4971 35.2219 48.6732 35.2219C48.8493 35.2219 49.0182 35.152 49.1427 35.0276L51.4763 32.689C51.5381 32.6274 51.5872 32.5541 51.6207 32.4735C51.6541 32.3929 51.6714 32.3065 51.6714 32.2192C51.6714 32.1319 51.6541 32.0455 51.6207 31.9648C51.5872 31.8842 51.5381 31.811 51.4763 31.7493L47.112 27.38L51.115 23.3758L53.24 25.4993C53.3646 25.6238 53.5334 25.6936 53.7095 25.6936C53.8856 25.6936 54.0545 25.6238 54.179 25.4993L55.7024 23.9743C55.8259 23.8502 55.8953 23.6824 55.8955 23.5074C55.8958 23.3324 55.8268 23.1644 55.7037 23.04Z" fill="#F2F2F2"/>
</svg>