<svg xmlns="http://www.w3.org/2000/svg" width="48" height="47" viewBox="0 0 48 47" fill="none">
<path d="M33.3262 45.7228C37.8872 45.7228 41.5846 42.0254 41.5846 37.4644C41.5846 32.9034 37.8872 29.2061 33.3262 29.2061C28.7653 29.2061 25.0679 32.9034 25.0679 37.4644C25.0679 42.0254 28.7653 45.7228 33.3262 45.7228Z" fill="#F9F3F1"/>
<path d="M39.165 43.3043C35.9401 46.5293 30.7116 46.5293 27.4866 43.3043C27.3706 43.1884 27.2583 43.0688 27.1514 42.9473C30.3763 45.2426 34.8798 44.9435 37.7713 42.052C40.8785 38.9449 40.9918 33.9764 38.1102 30.7334C38.4799 30.9962 38.8333 31.2934 39.165 31.6251C42.3909 34.8501 42.3909 40.0794 39.165 43.3043Z" fill="#EFE2DD"/>
<path d="M40.6727 9.78716C44.2448 13.2977 44.2946 19.0393 40.7841 22.6114L27.6392 35.9863C24.1287 39.5583 18.3871 39.6082 14.815 36.0976C11.243 32.5871 11.1931 26.8455 14.7037 23.2734L27.8485 9.89851C31.3591 6.32647 37.1007 6.27663 40.6727 9.78716Z" fill="#209F84"/>
<path d="M14.8156 36.0974C14.6969 35.9811 14.5819 35.8617 14.4712 35.7369C17.9752 37.8073 22.5648 37.3127 25.5456 34.2794L38.6901 20.9054C42.0842 17.4517 42.1502 11.9719 38.9234 8.44141C39.5455 8.80812 40.1348 9.25694 40.674 9.78654C44.2464 13.2969 44.2955 19.0386 40.7851 22.611L27.6402 35.9863C24.1301 39.5574 18.388 39.6077 14.8156 36.0974Z" fill="#57BE92"/>
<path d="M21.276 16.5859L34.2116 29.2989L27.6392 35.9863C24.1287 39.5584 18.3871 39.6082 14.815 36.0977C11.243 32.5871 11.1931 26.8455 14.7037 23.2735L21.276 16.5859Z" fill="#EE6161"/>
<path d="M14.8156 36.0979C14.7487 36.0327 14.6839 35.9655 14.6191 35.898C14.5689 35.8461 14.5195 35.7915 14.4712 35.7374C17.9752 37.8078 22.5648 37.3132 25.5456 34.28L32.294 27.4141L34.2122 29.2984L27.6402 35.9868C24.1301 39.558 18.388 39.6082 14.8156 36.0979Z" fill="#E94444"/>
<path d="M34.7387 6.21081C34.2007 6.18851 33.7366 6.61018 33.714 7.15356C33.6913 7.69681 34.1134 8.15559 34.6566 8.17828C36.6602 8.26183 38.552 9.0826 39.9834 10.4895C41.5235 12.0031 42.3819 14.0256 42.4006 16.185C42.4194 18.3442 41.5962 20.3815 40.0826 21.9215L34.2003 27.9067L22.6693 16.574L28.5516 10.5887C29.1815 9.94771 29.9042 9.42099 30.6994 9.02306C31.1857 8.77976 31.3827 8.18825 31.1393 7.70205C30.8961 7.21573 30.3046 7.01899 29.8183 7.26202C28.8283 7.75727 27.9296 8.41213 27.147 9.20838L14.0023 22.5835C11.2097 25.425 10.4528 29.5189 11.7159 33.0396C12.2103 34.4173 13.0139 35.7072 14.1257 36.8C14.244 36.9163 14.3648 37.0294 14.4878 37.1392C16.7625 39.1686 19.9105 40.1164 22.9103 39.5342C24.9727 39.1339 26.8625 38.1825 28.3424 36.6767L41.487 23.3018C43.3693 21.3866 44.393 18.8531 44.3698 16.1679C44.3465 13.4828 43.279 10.9675 41.3637 9.08523C39.5834 7.33547 37.2306 6.31468 34.7387 6.21081ZM26.9378 35.2963C25.4359 36.8245 23.3746 37.695 21.2425 37.7135C19.0876 37.7281 17.046 36.909 15.506 35.3955C12.3269 32.2711 12.2824 27.1427 15.4069 23.9635L21.289 17.9783L32.8201 29.311C32.8201 29.3111 26.9389 35.2953 26.9378 35.2963Z" fill="black"/>
<ellipse cx="33.0067" cy="37.5321" rx="8.15225" ry="8.15226" fill="white"/>
<path fill-rule="evenodd" clip-rule="evenodd" d="M33.0003 43.9863C36.7922 43.9863 39.8662 40.9123 39.8662 37.1204C39.8662 33.3285 36.7922 30.2546 33.0003 30.2546C29.2084 30.2546 26.1344 33.3285 26.1344 37.1204C26.1344 40.9123 29.2084 43.9863 33.0003 43.9863ZM33.0003 45.8903C37.8438 45.8903 41.7702 41.9639 41.7702 37.1204C41.7702 32.277 37.8438 28.3506 33.0003 28.3506C28.1569 28.3506 24.2305 32.277 24.2305 37.1204C24.2305 41.9639 28.1569 45.8903 33.0003 45.8903Z" fill="black"/>
<path d="M36.2898 41.1052C36.4638 41.1052 36.6377 41.0389 36.7705 40.9061C37.0358 40.6408 37.0358 40.2104 36.7705 39.945L30.8438 34.0183C30.5783 33.753 30.148 33.753 29.8826 34.0183C29.6173 34.2837 29.6173 34.7141 29.8826 34.9794L35.8093 40.9061C35.942 41.0389 36.116 41.1052 36.2898 41.1052Z" fill="black"/>
</svg>