<svg xmlns="http://www.w3.org/2000/svg" width="40" height="41" viewBox="0 0 40 41" fill="none">
<path d="M31.4496 22.6975L24.8116 15.9875L17.7346 9.07087C16.584 7.91385 15.0431 7.23389 13.4175 7.16581C11.7918 7.09773 10.2001 7.64648 8.95778 8.70329L8.79776 8.84358C8.71558 8.91971 8.6334 8.99475 8.55447 9.07414C7.95175 9.68008 7.47363 10.3995 7.14742 11.1914C6.82122 11.9832 6.65332 12.8319 6.65332 13.689C6.65332 14.5462 6.82122 15.3949 7.14742 16.1867C7.47363 16.9785 7.95175 17.698 8.55447 18.3039L15.6315 25.2206L22.2706 31.9284C22.8733 32.5346 23.5888 33.0154 24.3763 33.3435C25.1637 33.6716 26.0077 33.8404 26.8601 33.8404C27.7124 33.8404 28.5565 33.6716 29.3439 33.3435C30.1314 33.0154 30.8469 32.5346 31.4496 31.9284C32.0523 31.3222 32.5304 30.6026 32.8566 29.8106C33.1828 29.0186 33.3507 28.1697 33.3507 27.3124C33.3507 26.4552 33.1828 25.6063 32.8566 24.8143C32.5304 24.0223 32.0523 23.3026 31.4496 22.6964V22.6975Z" fill="#F34964"/>
<path d="M7.14922 10.1541C7.12987 10.0655 7.1287 9.97395 7.14581 9.88494C7.16292 9.79592 7.19792 9.71136 7.24869 9.63644C7.50004 9.26706 7.78493 8.92192 8.09967 8.60547C8.76146 7.93599 9.54872 7.40518 10.4159 7.04378C11.283 6.68238 12.2128 6.49756 13.1514 6.50002H13.2217C15.1154 6.52397 16.9233 7.29811 18.2529 8.6544L28.7511 19.0457C28.8739 19.1691 28.9428 19.3366 28.9428 19.5111C28.9428 19.6857 28.8739 19.8531 28.7511 19.9766C28.6904 20.0377 28.6182 20.0862 28.5388 20.1193C28.4594 20.1524 28.3743 20.1694 28.2884 20.1694C28.1148 20.1694 27.9483 20.1 27.8256 19.9766L23.1966 15.2883L17.2744 9.53312C16.1795 8.43304 14.6953 7.81511 13.1477 7.81511C11.6001 7.81511 10.1158 8.43304 9.02093 9.53312C8.76326 9.79207 8.53015 10.0746 8.32459 10.377C8.23199 10.5138 8.09159 10.6106 7.93133 10.6481C7.77106 10.6855 7.60266 10.661 7.45956 10.5793H7.45198C7.37554 10.5327 7.30928 10.471 7.25724 10.3979C7.2052 10.3248 7.16846 10.2419 7.14922 10.1541Z" fill="black"/>
<path d="M31.91 32.3942C31.2467 33.0617 30.459 33.5913 29.5921 33.9526C28.7253 34.3139 27.7961 34.4999 26.8577 34.4999C25.9193 34.4999 24.9901 34.3139 24.1232 33.9526C23.2563 33.5913 22.4687 33.0617 21.8054 32.3942L9.69498 20.376L8.09468 18.7686C7.18924 17.8583 6.54349 16.7201 6.22489 15.473C5.90629 14.2259 5.92654 12.9156 6.28352 11.6791C6.32264 11.5424 6.40508 11.4223 6.51828 11.3371C6.63149 11.2519 6.76928 11.2063 6.91067 11.2071C7.01283 11.2058 7.11383 11.2288 7.20547 11.2742C7.2971 11.3197 7.37678 11.3862 7.43801 11.4685C7.49924 11.5507 7.5403 11.6464 7.55783 11.7476C7.57536 11.8488 7.56888 11.9528 7.53891 12.051C7.24796 13.0603 7.23161 14.1297 7.4916 15.1475C7.75159 16.1654 8.27838 17.0944 9.01702 17.8377L13.8179 22.4651L22.731 31.4633C23.2717 32.0102 23.9148 32.4438 24.6233 32.7389C25.3318 33.034 26.0914 33.1849 26.8582 33.1826H27.0258C28.1648 33.1484 29.2689 32.7797 30.2021 32.1221C31.1352 31.4644 31.8567 30.5465 32.2775 29.4815C32.6983 28.4165 32.8002 27.2509 32.5704 26.1284C32.3406 25.0059 31.7893 23.9756 30.9844 23.1644L29.2663 21.4363C29.1435 21.3129 29.0746 21.1454 29.0746 20.9709C29.0746 20.7963 29.1435 20.6288 29.2663 20.5054C29.389 20.3819 29.5555 20.3126 29.7291 20.3126C29.9026 20.3126 30.0691 20.3819 30.1918 20.5054L31.91 22.2313C33.2483 23.5798 34 25.4074 34 27.3127C34 29.2181 33.2483 31.0456 31.91 32.3942Z" fill="black"/>
<path d="M16.8704 24.2783C16.7421 24.2782 16.6168 24.2398 16.5102 24.1681C16.4036 24.0964 16.3206 23.9945 16.2715 23.8754C16.2225 23.7562 16.2096 23.6251 16.2346 23.4986C16.2596 23.3721 16.3213 23.2559 16.4119 23.1646L22.6758 16.9114C22.7359 16.85 22.8075 16.8012 22.8864 16.7678C22.9653 16.7344 23.0501 16.7171 23.1357 16.7168C23.2214 16.7165 23.3062 16.7333 23.3854 16.7661C23.4646 16.799 23.5365 16.8472 23.597 16.9082C23.6575 16.9691 23.7055 17.0415 23.738 17.1212C23.7706 17.2008 23.7872 17.2862 23.7868 17.3723C23.7864 17.4585 23.769 17.5437 23.7357 17.623C23.7024 17.7024 23.6538 17.7743 23.5927 17.8347L17.3288 24.088C17.2071 24.21 17.0422 24.2784 16.8704 24.2783Z" fill="black"/>
<path d="M23.885 15.9851L23.1958 15.292H23.1969L23.885 15.9851Z" fill="black"/>
</svg>