<svg xmlns="http://www.w3.org/2000/svg" width="247" height="406" viewBox="0 0 247 406" fill="none">
<path d="M224.55 401.512C227.19 385.312 227.01 356.022 211.55 344.812C201.55 337.552 190.2 338.812 179.41 343.312C153.81 353.902 139.05 367.312 110.14 371.182C61.42 377.772 58.85 331.132 95.38 308.482C108.11 300.582 120.6 292.562 133.6 285.142C190.78 252.482 274.46 184.592 236.81 113.382C222.91 87.0615 194.06 70.9615 163 75.5015C160.556 75.8825 158.143 76.4407 155.78 77.1715C1.75 123.322 0 0.0615234 0 0.0615234V405.562C0 405.492 206.83 405.632 223.77 405.652C224.07 404.285 224.33 402.905 224.55 401.512Z" fill="#F8F9F8"/>
</svg>