<svg xmlns="http://www.w3.org/2000/svg" width="34" height="34" viewBox="0 0 34 34" fill="none">
<path fill-rule="evenodd" clip-rule="evenodd" d="M14.8796 0.394531C6.98406 0.394531 0.583496 6.86396 0.583496 14.8444C0.583496 22.8249 6.98406 29.2943 14.8796 29.2943C22.7751 29.2943 29.1756 22.8249 29.1756 14.8444C29.1756 11.0121 27.6694 7.33668 24.9884 4.6268C22.3074 1.91692 18.6711 0.394531 14.8796 0.394531ZM33.1969 29.9219L28.9391 26.485C28.2949 25.8452 27.2622 25.8452 26.618 26.485C26.284 26.8215 26.0962 27.2785 26.0962 27.7552C26.0962 28.2318 26.284 28.6889 26.618 29.0253L30.1514 33.0749C31.0128 33.9455 32.4094 33.9455 33.2708 33.0749C34.1322 32.2042 34.1322 30.7926 33.2708 29.9219H33.1969ZM11.1784 9.35577C11.1784 7.30667 12.8219 5.64555 14.8491 5.64555C15.8227 5.64555 16.7563 6.03645 17.4447 6.73225C18.1331 7.42805 18.5198 8.37176 18.5198 9.35577C18.5198 11.4049 16.8764 13.066 14.8491 13.066C12.8219 13.066 11.1784 11.4049 11.1784 9.35577Z" fill="#AEAEAE"/>
</svg>