<svg xmlns="http://www.w3.org/2000/svg" width="32" height="34" viewBox="0 0 32 34" fill="none">
<path fill-rule="evenodd" clip-rule="evenodd" d="M30.0037 19.6955C30.5999 20.0122 31.0598 20.5122 31.3834 21.0122C32.0136 22.0455 31.9625 23.3122 31.3493 24.4288L30.157 26.4288C29.5268 27.4955 28.3516 28.1622 27.1423 28.1622C26.5461 28.1622 25.8819 27.9955 25.3368 27.6622C24.894 27.3788 24.383 27.2788 23.8379 27.2788C22.1517 27.2788 20.738 28.6622 20.6869 30.3122C20.6869 32.2288 19.1199 33.7288 17.1611 33.7288H14.8447C12.8689 33.7288 11.3019 32.2288 11.3019 30.3122C11.2679 28.6622 9.85415 27.2788 8.16792 27.2788C7.60585 27.2788 7.09487 27.3788 6.66905 27.6622C6.12401 27.9955 5.4427 28.1622 4.8636 28.1622C3.63725 28.1622 2.462 27.4955 1.83179 26.4288L0.656537 24.4288C0.0263298 23.3455 -0.0077354 22.0455 0.622472 21.0122C0.894994 20.5122 1.40597 20.0122 1.98508 19.6955C2.462 19.4622 2.76858 19.0788 3.05814 18.6288C3.90977 17.1955 3.39879 15.3122 1.95102 14.4622C0.264787 13.5122 -0.280257 11.3955 0.690602 9.74551L1.83179 7.77884C2.81968 6.12884 4.93173 5.54551 6.63499 6.51218C8.11683 7.31218 10.0415 6.77884 10.9102 5.36217C11.1827 4.89551 11.336 4.39551 11.3019 3.89551C11.2679 3.24551 11.4552 2.62884 11.7788 2.12884C12.409 1.09551 13.5502 0.428841 14.7936 0.395508H17.1952C18.4556 0.395508 19.5968 1.09551 20.227 2.12884C20.5336 2.62884 20.738 3.24551 20.6869 3.89551C20.6528 4.39551 20.8061 4.89551 21.0787 5.36217C21.9473 6.77884 23.872 7.31218 25.3709 6.51218C27.0571 5.54551 29.1862 6.12884 30.157 7.77884L31.2982 9.74551C32.2861 11.3955 31.7411 13.5122 30.0378 14.4622C28.59 15.3122 28.0791 17.1955 28.9477 18.6288C29.2202 19.0788 29.5268 19.4622 30.0037 19.6955ZM11.1827 17.0788C11.1827 19.6955 13.3458 21.7788 16.0199 21.7788C18.694 21.7788 20.8061 19.6955 20.8061 17.0788C20.8061 14.4622 18.694 12.3622 16.0199 12.3622C13.3458 12.3622 11.1827 14.4622 11.1827 17.0788Z" fill="#AEAEAE"/>
</svg>