<svg xmlns="http://www.w3.org/2000/svg" width="25" height="24" viewBox="0 0 25 24" fill="none">
<path d="M12.3999 13C12.9522 13 13.3999 12.5523 13.3999 12C13.3999 11.4477 12.9522 11 12.3999 11C11.8476 11 11.3999 11.4477 11.3999 12C11.3999 12.5523 11.8476 13 12.3999 13Z" stroke="#828282" stroke-width="2" stroke-linecap="round" stroke-linejoin="round"/>
<path d="M19.3999 13C19.9522 13 20.3999 12.5523 20.3999 12C20.3999 11.4477 19.9522 11 19.3999 11C18.8476 11 18.3999 11.4477 18.3999 12C18.3999 12.5523 18.8476 13 19.3999 13Z" stroke="#828282" stroke-width="2" stroke-linecap="round" stroke-linejoin="round"/>
<path d="M5.3999 13C5.95219 13 6.3999 12.5523 6.3999 12C6.3999 11.4477 5.95219 11 5.3999 11C4.84762 11 4.3999 11.4477 4.3999 12C4.3999 12.5523 4.84762 13 5.3999 13Z" stroke="#828282" stroke-width="2" stroke-linecap="round" stroke-linejoin="round"/>
</svg>