<svg xmlns="http://www.w3.org/2000/svg" width="72" height="72" viewBox="0 0 72 72" fill="none">
<path d="M50.9565 39.0859L41.4736 29.5001L31.3636 19.6192C29.7198 17.9664 27.5186 16.995 25.1963 16.8977C22.8739 16.8005 20.6 17.5844 18.8253 19.0941L18.5967 19.2945C18.4793 19.4033 18.3619 19.5105 18.2491 19.6239C17.3881 20.4895 16.7051 21.5173 16.2391 22.6485C15.7731 23.7797 15.5332 24.9922 15.5332 26.2166C15.5332 27.4411 15.7731 28.6535 16.2391 29.7847C16.7051 30.9159 17.3881 31.9437 18.2491 32.8093L28.3591 42.6902L37.8436 52.2728C38.7046 53.1388 39.7268 53.8257 40.8517 54.2944C41.9767 54.7631 43.1824 55.0043 44.4 55.0043C45.6177 55.0043 46.8234 54.7631 47.9484 54.2944C49.0733 53.8257 50.0955 53.1388 50.9565 52.2728C51.8175 51.4069 52.5005 50.3788 52.9664 49.2474C53.4324 48.1159 53.6723 46.9032 53.6723 45.6786C53.6723 44.4539 53.4324 43.2412 52.9664 42.1098C52.5005 40.9783 51.8175 39.9503 50.9565 39.0843V39.0859Z" fill="#F2F2F2"/>
</svg>